<?xml version="1.0" encoding="iso-8859-1"?>
<!-- Uploaded to: SVG Repo, www.svgrepo.com, Generator: SVG Repo Mixer Tools -->
<svg fill="#fff" height="800px" width="800px" version="1.1" id="Layer_1" xmlns="http://www.w3.org/2000/svg" xmlns:xlink="http://www.w3.org/1999/xlink" 
	 viewBox="0 0 512 512" xml:space="preserve">
<g transform="translate(1 1)">
	<g>
		<g>
			<path d="M58.733,24.6C39.96,24.6,24.6,39.96,24.6,58.733s15.36,34.133,34.133,34.133s34.133-15.36,34.133-34.133
				S77.507,24.6,58.733,24.6z M58.733,75.8c-9.387,0-17.067-7.68-17.067-17.067s7.68-17.067,17.067-17.067S75.8,49.347,75.8,58.733
				S68.12,75.8,58.733,75.8z"/>
			<path d="M135.533,24.6c-18.773,0-34.133,15.36-34.133,34.133s15.36,34.133,34.133,34.133c18.773,0,34.133-15.36,34.133-34.133
				S154.307,24.6,135.533,24.6z M135.533,75.8c-9.387,0-17.067-7.68-17.067-17.067s7.68-17.067,17.067-17.067
				s17.067,7.68,17.067,17.067S144.92,75.8,135.533,75.8z"/>
			<path d="M212.333,24.6c-18.773,0-34.133,15.36-34.133,34.133s15.36,34.133,34.133,34.133c18.773,0,34.133-15.36,34.133-34.133
				S231.107,24.6,212.333,24.6z M212.333,75.8c-9.387,0-17.067-7.68-17.067-17.067s7.68-17.067,17.067-17.067
				c9.387,0,17.067,7.68,17.067,17.067S221.72,75.8,212.333,75.8z"/>
			<path d="M487.107-1H23.747C10.093-1-1,10.093-1,23.747V101.4v17.067v237.227C-1,371.053,10.947,383,26.307,383h121.301
				c8.482,41.466,31.697,81.012,63.872,105.813c12.8,10.24,25.6,15.36,40.107,21.333C253.293,511,254.147,511,255,511
				s1.707,0,4.267,0c14.507-5.973,27.307-11.093,40.107-21.333C331.551,464.193,354.767,424.5,363.247,383h120.446
				c15.36,0,27.307-11.947,27.307-27.307V118.467V101.4V23.747C511,10.093,499.907-1,487.107-1z M287.427,476.013
				c-9.387,7.68-20.48,11.947-32.427,17.067c-11.947-4.267-22.187-9.387-32.427-17.067c-33.425-26.588-56.013-68.73-60.573-111.376
				c-0.391-4.182-0.702-8.43-0.816-12.518c-0.024-1.085-0.051-2.169-0.051-3.253v-77.653c36.693-5.973,69.973-17.067,93.867-31.573
				c23.893,14.507,57.173,26.453,93.867,31.573v77.653C348.867,396.653,324.973,447,287.427,476.013z M493.933,355.693
				c0,5.973-4.267,10.24-10.24,10.24H365.872c0.469-4.506,0.76-9.013,0.86-13.506c0.24-1.221,0.527-2.415,0.909-3.561v-93.013
				L359.96,255c-39.253-4.267-75.947-17.067-98.987-32.427l-5.12-3.413l-5.12,3.413C227.693,237.933,191,249.88,151.747,255
				l-7.68,0.853v7.68v85.333c0,5.973,0,11.093,0.853,17.067H26.307c-5.973,0-10.24-4.267-10.24-10.24V118.467h477.867V355.693z
				 M16.067,101.4V23.747c0-4.267,3.413-7.68,7.68-7.68h462.507c4.267,0,7.68,3.413,7.68,7.68V101.4H16.067z"/>
			<path d="M255,289.133c-37.547,0-68.267,30.72-68.267,68.267s30.72,68.267,68.267,68.267c37.547,0,68.267-30.72,68.267-68.267
				S292.547,289.133,255,289.133z M255,408.6c-28.16,0-51.2-23.04-51.2-51.2s23.04-51.2,51.2-51.2c28.16,0,51.2,23.04,51.2,51.2
				S283.16,408.6,255,408.6z"/>
			<path d="M280.6,348.867h-17.067V331.8c0-5.12-3.413-8.533-8.533-8.533s-8.533,3.413-8.533,8.533v17.067H229.4
				c-5.12,0-8.533,3.413-8.533,8.533s3.413,8.533,8.533,8.533h17.067V383c0,5.12,3.413,8.533,8.533,8.533s8.533-3.413,8.533-8.533
				v-17.067H280.6c5.12,0,8.533-3.413,8.533-8.533S285.72,348.867,280.6,348.867z"/>
		</g>
	</g>
</g>
</svg>